<svg width="16" height="16" viewBox="0 0 16 16" fill="none" xmlns="http://www.w3.org/2000/svg">
<path d="M7.99927 0.310608C3.85702 0.310608 0.499268 3.66836 0.499268 7.81061C0.499268 11.9529 3.85702 15.3106 7.99927 15.3106C12.1415 15.3106 15.4993 11.9529 15.4993 7.81061C15.4993 3.66836 12.1415 0.310608 7.99927 0.310608ZM7.99927 4.06061C8.41327 4.06061 8.74927 4.39661 8.74927 4.81061C8.74927 5.22461 8.41327 5.56061 7.99927 5.56061C7.58527 5.56061 7.24927 5.22461 7.24927 4.81061C7.24927 4.39661 7.58527 4.06061 7.99927 4.06061ZM7.24927 6.31061C7.37077 6.31061 7.90477 6.31061 7.99927 6.31061C8.47252 6.31061 8.81901 6.73735 8.72601 7.2016L8.16351 10.0606H8.74927C9.16327 10.0606 9.49927 10.3966 9.49927 10.8106C9.49927 11.2246 9.16327 11.5606 8.74927 11.5606H7.99927C7.11202 11.5606 6.48951 10.7904 6.66351 9.91962L7.10828 7.7641C6.76853 7.6921 6.49927 7.42211 6.49927 7.06061C6.49927 6.64661 6.83527 6.31061 7.24927 6.31061Z" fill="#5F63C7"/>
</svg>
