<svg width="34" height="34" viewBox="0 0 34 34" fill="none" xmlns="http://www.w3.org/2000/svg">
<path d="M7.0236 0.255371C3.34193 0.255371 0.356934 3.2402 0.356934 6.92204V20.2554C0.356934 23.937 3.34193 26.922 7.0236 26.922L7.06195 26.9104C7.42028 30.5987 10.6036 33.5887 14.4202 33.5887C14.9536 33.5887 18.1569 33.5887 18.6903 33.5887C24.6103 33.5887 33.6903 24.5087 33.6903 18.5887V14.3187C33.6903 10.5015 30.7936 7.3362 27.0319 6.96437L27.0236 6.92204C27.0236 3.2402 24.0386 0.255371 20.3569 0.255371H7.0236ZM7.0236 3.5887H20.3569C22.1986 3.5887 23.6903 5.08104 23.6903 6.92204C20.5469 6.92204 15.5786 6.92204 14.4202 6.92204C10.3436 6.92204 7.0236 10.2415 7.0236 14.3187V23.5887C5.18193 23.5887 3.69027 22.097 3.69027 20.2554V6.92204C3.69027 5.08104 5.18193 3.5887 7.0236 3.5887ZM24.4202 20.2554L30.022 20.242C28.7753 23.8787 23.9619 28.5587 20.3619 29.9087L20.3569 24.3187C20.3569 22.082 22.1836 20.2554 24.4202 20.2554Z" fill="#5F63C7"/>
</svg>
