<svg width="18" height="16" viewBox="0 0 18 16" fill="none" xmlns="http://www.w3.org/2000/svg">
<path d="M11.9158 0.441406C9.84469 0.441406 8.16577 2.12057 8.16577 4.19141C8.16577 6.26224 9.84469 7.94141 11.9158 7.94141C13.9869 7.94141 15.6658 6.26224 15.6658 4.19141C15.6658 2.12057 13.9869 0.441406 11.9158 0.441406ZM5.66577 1.27474C3.82485 1.27474 2.33244 2.76724 2.33244 4.60807C2.33244 6.44891 3.82485 7.94141 5.66577 7.94141C6.35694 7.94141 6.98785 7.75143 7.54311 7.3631C6.11911 5.24643 6.32094 3.21974 7.09702 1.58724C6.65377 1.37724 6.16694 1.27474 5.66577 1.27474ZM3.21785 9.0614C1.68944 9.69223 0.665771 11.2381 0.665771 12.9414V14.6081C0.665771 15.0681 1.03885 15.4414 1.4991 15.4414L4.95977 15.4431C4.76477 14.8098 4.82211 13.7831 4.83494 12.9522C4.86202 11.1881 5.59161 9.92972 5.87736 9.59805C5.35219 9.59389 4.72194 9.4664 4.25952 9.26973C4.14786 9.22223 4.08302 9.18474 3.86894 9.08724C3.65902 8.99141 3.43102 8.97307 3.21785 9.0614ZM9.05119 9.0614C7.52277 9.69223 6.4991 11.2381 6.4991 12.9414V14.6081C6.4991 15.0681 6.87219 15.4414 7.33244 15.4414H16.4991C16.9594 15.4414 17.3324 15.0681 17.3324 14.6081V12.9414C17.3324 11.2781 16.3031 9.76974 14.7804 9.11308C14.566 9.02058 14.3163 9.01808 14.1033 9.11308C13.3659 9.44391 12.6476 9.60807 11.9158 9.60807C11.1864 9.60807 10.4656 9.43474 9.70227 9.08724C9.49236 8.99141 9.26436 8.97307 9.05119 9.0614Z" fill="#5F63C7"/>
</svg>
