<svg width="34" height="28" viewBox="0 0 34 28" fill="none" xmlns="http://www.w3.org/2000/svg">
<path d="M2.12394 9.7708C1.03994 10.2258 0.367106 11.0358 0.35694 12.1825C0.34994 12.9841 0.890937 14.0608 1.97494 14.5008C2.42144 14.6825 8.6906 15.5258 8.6906 15.5258C8.6906 15.5258 10.3499 20.7708 10.9479 22.6141C11.1211 23.1475 11.2198 23.4091 11.5998 23.7575C12.2444 24.3475 13.3343 24.1625 13.8056 23.6892C15.0526 22.4392 17.0236 20.5108 17.0236 20.5108L17.8531 21.1858C17.8531 21.1858 21.5366 24.1241 23.5501 25.5075C24.7356 26.3225 25.5584 27.1725 26.8928 27.1775C27.5724 27.1808 28.6626 26.8425 29.3833 26.0175C29.8594 25.4725 30.1649 24.6008 30.2831 23.8191C30.5518 22.0441 33.7036 2.85081 33.6903 2.17914C33.6689 1.10748 32.7674 0.50413 32.0181 0.510797C31.5474 0.515797 31.1596 0.652483 30.2966 0.915816C23.6209 2.95415 2.56611 9.5858 2.12394 9.7708ZM27.0236 5.5108C27.0236 5.5108 18.2269 13.1675 14.7118 16.6908C13.5856 17.8192 13.5061 19.7558 13.5061 19.7558L11.6891 13.9425L27.0236 5.5108Z" fill="#5F63C7"/>
</svg>
